<svg width="50" height="50" viewBox="0 0 70 70" fill="none" xmlns="http://www.w3.org/2000/svg">
<path d="M60.3555 50.5441C61.3976 46.6547 61.5312 42.5781 60.7457 38.6289C59.96 34.6797 58.2768 30.9645 55.8256 27.77C53.3744 24.5756 50.2212 21.9879 46.6101 20.2071C42.999 18.4262 39.0265 17.5 35 17.5C30.9735 17.5 27.0011 18.4262 23.3899 20.2071C19.7787 21.9879 16.6256 24.5756 14.1745 27.77C11.7233 30.9645 10.0399 34.6797 9.25438 38.6289C8.46887 42.5781 8.60233 46.6547 9.64446 50.5441" stroke="#222222" stroke-width="2.66667" stroke-linecap="round"/>
<path d="M37.2333 45.4484C38.6552 47.5172 37.6554 50.6736 35 52.4983C32.345 54.3229 29.0399 54.1249 27.6181 52.0558C26.1029 49.8508 20.8722 37.4526 17.6958 29.7833C17.0976 28.3389 18.8641 27.125 19.9981 28.2013C26.0189 33.9159 35.7181 43.2434 37.2333 45.4484Z" stroke="#222222" stroke-width="2.66667"/>
<path d="M35 17.5V23.3333" stroke="#222222" stroke-width="2.66667" stroke-linecap="round"/>
<path d="M16.4383 25.1876L20.5631 29.3125" stroke="#222222" stroke-width="2.66667" stroke-linecap="round"/>
<path d="M53.5616 25.1876L49.4369 29.3125" stroke="#222222" stroke-width="2.66667" stroke-linecap="round"/>
<path d="M60.3558 50.5432L54.7211 49.0335" stroke="#222222" stroke-width="2.66667" stroke-linecap="round"/>
<path d="M9.64435 50.5432L15.2789 49.0335" stroke="#222222" stroke-width="2.66667" stroke-linecap="round"/>
</svg>
