<svg heigth="110px" viewBox="0 0 626 170" fill="none" xmlns="http://www.w3.org/2000/svg">
<path d="M165 66L229.208 43.0686C242.305 38.391 256.109 36 270.016 36H284.29C316.234 36 347.65 27.8461 375.562 12.3103L383.865 7.6888C393.757 2.18301 404.993 -0.441498 416.301 0.112785L424.797 0.529249C443.186 1.43067 460.895 7.76217 475.687 18.7239C489.957 29.2988 509 30.835 524.781 22.6844L528.12 20.96C551.818 8.72037 579.28 5.93957 604.95 13.1802L626 19.1176V140C626 156.569 612.569 170 596 170H30C13.4315 170 0 156.569 0 140V136.912L2.36829 117.535C6.35642 84.9047 43.1298 67.7132 70.7244 85.5784C84.5745 94.5452 102.076 95.7141 116.996 88.6688L165 66Z" fill="#FFEFEF"/>
</svg>
