<svg width="50" height="50" viewBox="0 0 70 70" fill="none" xmlns="http://www.w3.org/2000/svg">
<path fill-rule="evenodd" clip-rule="evenodd" d="M58.8055 27.44C57.2589 16.8722 48.1841 8.75 37.1875 8.75C28.1498 8.75 20.3952 14.2319 17.0603 22.05C16.4948 21.9362 15.9119 21.875 15.3125 21.875C10.4803 21.875 6.5625 25.7928 6.5625 30.625C6.5625 32.6134 7.23406 34.44 8.35188 35.91C3.46609 37.8197 0 42.5622 0 48.125C0 55.3733 5.87672 61.25 13.125 61.25H52.5C62.1655 61.25 70 53.4166 70 43.75C70 36.3103 65.3505 29.972 58.8055 27.44ZM52.5 59.0625H13.125C7.08531 59.0625 2.1875 54.1658 2.1875 48.125C2.1875 42.0842 7.08531 37.1875 13.125 37.1875C13.7298 37.1875 14.2188 36.6986 14.2188 36.0938C14.2188 35.4911 13.7331 35.0044 13.1305 35.0022H13.1469C13.1392 35.0022 13.1327 35 13.125 35C12.2817 35 11.4614 35.0875 10.663 35.2395C9.48609 34.0539 8.75 32.4275 8.75 30.625C8.75 27.0014 11.6889 24.0625 15.3125 24.0625C17.1248 24.0625 18.7655 24.7975 19.9533 25.9853C19.9533 25.9853 21.0547 27.0703 21.875 26.2522C22.6953 25.4319 21.4998 24.4388 21.4998 24.4388C20.8152 23.7552 20.0134 23.1908 19.1341 22.7642C19.1362 22.7642 19.1384 22.7653 19.1406 22.7664C22.1758 15.8058 29.1091 10.9375 37.1875 10.9375C46.725 10.9375 54.6744 17.7188 56.4856 26.7236C56.49 26.7247 56.4933 26.7258 56.4977 26.7269C55.2114 26.425 53.8781 26.25 52.5 26.25C51.8952 26.25 51.4062 26.7389 51.4062 27.3438C51.4062 27.9486 51.8952 28.4375 52.5 28.4375C60.9569 28.4375 67.8125 35.2942 67.8125 43.75C67.8125 52.2058 60.9569 59.0625 52.5 59.0625Z" fill="#231F20"/>
<path fill-rule="evenodd" clip-rule="evenodd" d="M52.5 32.8125C51.8952 32.8125 51.4062 33.3014 51.4062 33.9062C51.4062 34.5111 51.8952 35 52.5 35C57.3322 35 61.25 38.9178 61.25 43.75C61.25 44.3548 61.7389 44.8438 62.3438 44.8438C62.9486 44.8438 63.4375 44.3548 63.4375 43.75C63.4375 37.7092 58.5397 32.8125 52.5 32.8125Z" fill="#231F20"/>
<path fill-rule="evenodd" clip-rule="evenodd" d="M20.5931 38.5886C19.7728 39.3914 20.8589 40.39 20.8589 40.39C22.8386 42.3697 24.0625 45.1041 24.0625 48.125C24.0625 48.7298 24.5514 49.2187 25.1562 49.2187C25.7611 49.2187 26.25 48.7298 26.25 48.125C26.25 44.5014 24.78 41.2201 22.4054 38.8445C22.4054 38.8445 21.4134 37.7858 20.5931 38.5886Z" fill="#231F20"/>
</svg>
