<svg width="50" height="50" viewBox="0 0 70 70" fill="none" xmlns="http://www.w3.org/2000/svg">
<path d="M46.901 32.7778C44.6856 19.5985 28.2548 4.1778 27.5163 3.55022C27.1471 3.19159 26.5933 3.19159 26.224 3.55022C25.3933 4.26746 6.5625 21.8399 6.5625 35.5571C6.5625 46.4054 15.701 55.2813 26.8702 55.2813C30.0087 55.2813 33.0548 54.564 35.824 53.2192C37.7625 54.4744 40.0702 55.2813 42.5625 55.2813C49.2087 55.2813 54.5625 50.0813 54.5625 43.6261C54.5625 38.695 51.424 34.4813 46.901 32.7778ZM26.8702 53.4881C16.7163 53.4881 8.40865 45.4192 8.40865 35.5571C8.40865 23.9916 23.5471 8.66056 26.8702 5.43297C29.9163 8.39159 42.5625 21.2123 44.9625 32.2399C44.1317 32.0606 43.3933 31.9709 42.5625 31.9709C35.9163 31.9709 30.5625 37.1709 30.5625 43.6261C30.5625 46.9433 31.9471 49.9019 34.2548 51.964C31.9471 52.9502 29.4548 53.4881 26.8702 53.4881ZM42.5625 53.4881C36.9317 53.4881 32.4087 49.095 32.4087 43.6261C32.4087 38.1571 36.9317 33.764 42.5625 33.764C48.1933 33.764 52.7163 38.1571 52.7163 43.6261C52.7163 49.095 48.1933 53.4881 42.5625 53.4881Z" fill="black"/>
<path d="M26.8702 49.0054C19.2086 49.0054 13.024 42.9985 13.024 35.5571C13.024 35.0192 12.6548 34.6606 12.1009 34.6606C11.5471 34.6606 11.1779 35.0192 11.1779 35.5571C11.1779 43.9847 18.1932 50.7985 26.8702 50.7985C27.424 50.7985 27.7932 50.4399 27.7932 49.9019C27.7932 49.364 27.424 49.0054 26.8702 49.0054Z" fill="black"/>
<path d="M45.701 36.5433C45.2395 36.364 44.6856 36.5433 44.501 36.9916L38.9625 49.5433C38.7779 49.9916 38.9625 50.5295 39.4241 50.7088C39.5164 50.7985 39.701 50.7985 39.7933 50.7985C40.1625 50.7985 40.5318 50.6192 40.6241 50.2606L46.1625 37.7088C46.3471 37.2606 46.1625 36.7226 45.701 36.5433Z" fill="black"/>
<path d="M41.6394 40.0399C41.6394 38.5157 40.4394 37.3502 38.8702 37.3502C37.301 37.3502 36.101 38.5157 36.101 40.0399C36.101 41.564 37.301 42.7295 38.8702 42.7295C40.4394 42.7295 41.6394 41.564 41.6394 40.0399ZM37.9471 40.0399C37.9471 39.5019 38.3163 39.1433 38.8702 39.1433C39.424 39.1433 39.7933 39.5019 39.7933 40.0399C39.7933 40.5778 39.424 40.9364 38.8702 40.9364C38.3163 40.9364 37.9471 40.5778 37.9471 40.0399Z" fill="black"/>
<path d="M46.2548 44.5226C44.6856 44.5226 43.4856 45.6881 43.4856 47.2123C43.4856 48.7364 44.6856 49.9019 46.2548 49.9019C47.8241 49.9019 49.0241 48.7364 49.0241 47.2123C49.0241 45.6881 47.8241 44.5226 46.2548 44.5226ZM46.2548 48.1088C45.701 48.1088 45.3317 47.7502 45.3317 47.2123C45.3317 46.6744 45.701 46.3157 46.2548 46.3157C46.8087 46.3157 47.1779 46.6744 47.1779 47.2123C47.1779 47.7502 46.8087 48.1088 46.2548 48.1088Z" fill="black"/>
</svg>
