<svg width="45" height="44" viewBox="0 0 49 48" fill="none" xmlns="http://www.w3.org/2000/svg">
<path fill-rule="evenodd" clip-rule="evenodd" d="M30.625 21C30.625 25.9706 26.5117 30 21.4375 30C16.3634 30 12.25 25.9706 12.25 21C12.25 16.0294 16.3634 12 21.4375 12C26.5117 12 30.625 16.0294 30.625 21ZM28.9494 30.4798C26.8749 32.0594 24.2683 33 21.4375 33C14.672 33 9.1875 27.6274 9.1875 21C9.1875 14.3726 14.672 9 21.4375 9C28.203 9 33.6875 14.3726 33.6875 21C33.6875 23.773 32.7273 26.3264 31.1148 28.3584L40.8954 37.9394L38.7298 40.0606L28.9494 30.4798Z" fill="#313434"/>
</svg>
