<svg width="50" height="50" viewBox="0 0 70 70" fill="none" xmlns="http://www.w3.org/2000/svg">
<path d="M8.75 23.3333H14.5833M20.4167 17.0833V16.0417C20.4167 12.0146 23.6813 8.75 27.7083 8.75C31.7354 8.75 35 12.0146 35 16.0417C35 20.0687 31.7354 23.3333 27.7083 23.3333H23.3333" stroke="#110F0F" stroke-width="4" stroke-linecap="round"/>
<path d="M11.6666 40.8333H14.5833M43.75 49.5833V51.0417C43.75 56.6796 48.3204 61.25 53.9583 61.25C59.5962 61.25 64.1666 56.6796 64.1666 51.0417C64.1666 45.4037 59.5962 40.8333 53.9583 40.8333H26.25" stroke="#110F0F" stroke-width="4" stroke-linecap="round"/>
<path d="M5.83331 32.0833H23.3333M43.75 23.3333V21.875C43.75 16.2371 48.3204 11.6667 53.9583 11.6667C59.5962 11.6667 64.1666 16.2371 64.1666 21.875C64.1666 27.5129 59.5962 32.0833 53.9583 32.0833H35.7291" stroke="#110F0F" stroke-width="4" stroke-linecap="round"/>
</svg>
